<?xml version="1.0" encoding="utf-8"?><svg viewBox="0 0 60 60" xmlns="http://www.w3.org/2000/svg" xmlns:xlink="http://www.w3.org/1999/xlink"><style>:root>svg{display:none}:root>svg:target{display:block}</style><svg viewBox="0 0 32 32" id="icon-facebook" xmlns="http://www.w3.org/2000/svg"><path fill-rule="evenodd" clip-rule="evenodd" d="M0 16C0 7.163 7.163 0 16 0s16 7.163 16 16-7.163 16-16 16S0 24.837 0 16Zm16-8c4.4 0 8 3.6 8 8 0 4-2.9 7.4-6.9 8v-5.7H19l.4-2.3h-2.2v-1.5c0-.6.3-1.2 1.3-1.2h1v-2s-.9-.2-1.8-.2c-1.8 0-3 1.1-3 3.1V16h-2v2.3h2v5.6C10.9 23.3 8 20 8 16c0-4.4 3.6-8 8-8Z"/></svg><svg viewBox="0 0 32 32" id="icon-instagram" xmlns="http://www.w3.org/2000/svg"><path d="M16 18.8c-1.5 0-2.8-1.2-2.8-2.8 0-1.5 1.2-2.8 2.8-2.8 1.5 0 2.8 1.2 2.8 2.8 0 1.5-1.3 2.8-2.8 2.8Z"/><path fill-rule="evenodd" clip-rule="evenodd" d="M19.4 9.2h-6.8c-.8.1-1.2.2-1.5.3-.4.1-.7.3-1 .6-.237.237-.35.475-.485.762-.036.075-.073.155-.115.238a5.48 5.48 0 0 1-.052.148A3.53 3.53 0 0 0 9.2 12.6v6.8c.1.8.2 1.2.3 1.5.1.4.3.7.6 1 .237.237.475.35.762.485.075.036.155.073.238.115.046.015.095.033.148.052a3.53 3.53 0 0 0 1.352.248h6.8c.8-.1 1.2-.2 1.5-.3.4-.1.7-.3 1-.6.237-.237.35-.475.485-.762.036-.075.073-.155.115-.238.015-.046.033-.095.052-.147A3.53 3.53 0 0 0 22.8 19.4v-6.8c-.1-.8-.2-1.2-.3-1.5-.1-.4-.3-.7-.6-1-.237-.237-.475-.35-.762-.485A11.461 11.461 0 0 1 20.9 9.5c-.046-.015-.095-.033-.147-.052A3.53 3.53 0 0 0 19.4 9.2ZM16 11.7c-2.4 0-4.3 1.9-4.3 4.3s1.9 4.3 4.3 4.3 4.3-1.9 4.3-4.3-1.9-4.3-4.3-4.3Zm5.4-.1a1 1 0 1 1-2 0 1 1 0 0 1 2 0Z"/><path fill-rule="evenodd" clip-rule="evenodd" d="M0 16C0 7.163 7.163 0 16 0s16 7.163 16 16-7.163 16-16 16S0 24.837 0 16Zm12.6-8.3h6.8c.9.1 1.5.2 2 .4.6.3 1 .5 1.5 1s.8 1 1 1.5c.2.5.4 1.1.4 2v6.8c-.1.9-.2 1.5-.4 2-.3.6-.5 1-1 1.5s-1 .8-1.5 1c-.5.2-1.1.4-2 .4h-6.8c-.9-.1-1.5-.2-2-.4-.6-.3-1-.5-1.5-1s-.8-1-1-1.5c-.2-.5-.4-1.1-.4-2v-6.8c.1-.9.2-1.5.4-2 .3-.6.5-1 1-1.5s1-.8 1.5-1c.5-.2 1.1-.4 2-.4Z"/></svg><svg viewBox="0 0 32 32" id="icon-linkedin" xmlns="http://www.w3.org/2000/svg"><path fill-rule="evenodd" clip-rule="evenodd" d="M0 16C0 7.163 7.163 0 16 0s16 7.163 16 16-7.163 16-16 16S0 24.837 0 16Zm8.2-2.7V24h3.4V13.3H8.2ZM8 9.9c0 1.1.8 1.9 1.9 1.9 1.1 0 1.9-.8 1.9-1.9C11.8 8.8 11 8 9.9 8 8.9 8 8 8.8 8 9.9ZM20.6 24h3.2v-6.6c0-3.3-2-4.4-3.9-4.4-1.7 0-2.9 1.1-3.2 1.8v-1.5h-3.2V24h3.4v-5.7c0-1.5 1-2.3 2-2.3s1.7.5 1.7 2.2V24Z"/></svg><svg viewBox="0 0 32 32" id="icon-pinterest" xmlns="http://www.w3.org/2000/svg"><path fill-rule="evenodd" clip-rule="evenodd" d="M0 16C0 7.163 7.163 0 16 0s16 7.163 16 16-7.163 16-16 16S0 24.837 0 16Zm8 0c0-4.4 3.6-8 8-8s8 3.6 7.9 7.6c0 4.4-3.6 8-8 8-.8 0-1.6-.1-2.3-.3.3-.5.6-1.1.8-1.7.1-.4.6-2.2.6-2.2.3.5 1.1 1 2 1 2.6 0 4.3-2.4 4.3-5.5 0-2.4-2-4.6-5.1-4.6-3.8 0-5.7 2.7-5.7 5 0 1.4.5 2.6 1.6 3.1.2.1.3 0 .4-.2.1-.1.2-.5.2-.6.07-.141.041-.183-.017-.266-.024-.034-.054-.075-.083-.134-.3-.4-.5-.9-.5-1.6 0-2 1.5-3.8 3.9-3.8 2.1 0 3.3 1.3 3.3 3.1 0 2.4-1 4.3-2.5 4.3-.9 0-1.5-.7-1.3-1.5.084-.417.22-.852.35-1.268.18-.58.35-1.124.35-1.532 0-.7-.4-1.2-1.1-1.2-.8 0-1.5.9-1.5 2.1 0 .8.3 1.3.3 1.3s-.8 3.7-1 4.4c-.1.6-.1 1.2-.1 1.8C10 22.1 8 19.3 8 16Z"/></svg><svg viewBox="0 0 60 60" id="icon-shape" xmlns="http://www.w3.org/2000/svg"><path d="M17.5 25 30 37.5 42.5 25"/></svg><svg viewBox="0 0 32 32" id="icon-twitter" xmlns="http://www.w3.org/2000/svg"><path fill-rule="evenodd" clip-rule="evenodd" d="M0 16C0 7.163 7.163 0 16 0s16 7.163 16 16-7.163 16-16 16S0 24.837 0 16Zm22.1-4.5c.7-.1 1.3-.2 1.9-.5-.4.7-1 1.3-1.7 1.7.2 4.7-3.2 9.8-9.3 9.8-1.8 0-3.5-.6-5-1.5 1.7.2 3.5-.3 4.7-1.2-1.5 0-2.7-1-3.1-2.3.5.1 1 0 1.5-.1-1.5-.4-2.6-1.8-2.6-3.3.5.2 1 .4 1.5.4-1.4-1-1.9-2.9-1-4.4 1.7 2 4.1 3.3 6.8 3.4-.5-2 1.1-4 3.2-4 .9 0 1.8.4 2.4 1 .8-.2 1.5-.4 2.1-.8-.2.8-.7 1.4-1.4 1.8Z"/></svg><svg viewBox="0 0 32 32" id="icon-youtube" xmlns="http://www.w3.org/2000/svg"><path d="m18.6 16-4.2-2.4v4.8l4.2-2.4Z"/><path fill-rule="evenodd" clip-rule="evenodd" d="M0 16C0 7.163 7.163 0 16 0s16 7.163 16 16-7.163 16-16 16S0 24.837 0 16Zm22.2-5.3c.7.2 1.2.7 1.4 1.4.4 1.3.4 3.9.4 3.9s0 2.6-.3 3.9c-.2.7-.7 1.2-1.4 1.4-1.3.3-6.3.3-6.3.3s-5.1 0-6.3-.3c-.7-.2-1.2-.7-1.4-1.4C8 18.6 8 16 8 16s0-2.6.2-3.9c.2-.7.7-1.2 1.4-1.4 1.3-.3 6.3-.3 6.3-.3s5.1 0 6.3.3Z"/></svg></svg>